<svg width="1600" height="1200" viewBox="0 0 1600 1200" fill="none" xmlns="http://www.w3.org/2000/svg">
<g clip-path="url(#clip0)">
<path d="M1307.45 901.754C854.967 927.805 1051.16 1498.06 1441.28 1694C1096.17 1694 299.276 1368.92 299.276 971.409C299.276 573.9 337.484 182 682.586 182C1027.69 182 1307.45 504.245 1307.45 901.754Z" fill="#0AB7E0"/>
<path d="M2064.28 -22.7498C2064.28 437.994 1807.25 607 1530.46 607C1253.66 607 1029.28 233.494 1029.28 -227.25C1029.28 -687.994 1286.3 -857 1563.1 -857C1839.89 -857 2064.28 -483.494 2064.28 -22.7498Z" fill="#E16197"/>
<path d="M1056.21 -960.961C1688.89 -897.676 1926.62 -78.8165 1882.05 369.048C1837.48 816.912 1583.09 309.566 950.409 246.282C317.73 182.997 422.371 31.4259 466.941 -416.438C17.253 -321.326 423.534 -1024.25 1056.21 -960.961Z" fill="#2E39A9"/>
<path opacity="0.1" d="M1360.47 -467.078C1705.73 -432.631 1805.12 238.68 1780.8 482.429C1756.47 726.177 1617.65 450.06 1272.38 415.613C927.117 381.172 741.723 267.248 766.043 23.5C790.369 -220.248 1015.2 -501.518 1360.47 -467.078Z" fill="#F4F3EF"/>
<path d="M1326.31 -287.343C1552.91 -264.73 1378.26 277.913 1356.81 492.834C1335.37 707.754 1250.1 467.991 1023.49 445.378C796.887 422.759 478.868 332.571 500.306 117.657C521.743 -97.2637 1099.7 -309.956 1326.31 -287.343Z" fill="#0AB7E0"/>
<path d="M1814.84 451.059C2050.24 875.465 1804.62 1505.37 1525.85 1660.99C1247.07 1816.6 852.561 1353.97 654.877 1000.1C457.199 646.229 827.247 -97.7039 1268.12 11.9129C1498.18 69.1196 1699.88 243.799 1814.84 451.059Z" fill="#9AB3F5"/>
<path opacity="0.1" d="M1793.22 1062.75C1805.99 1355.14 1702.41 1562.55 1532.95 1657.2C1363.49 1751.84 1116.41 1489.03 1003.51 1255.25C762.66 756.534 1086.55 91.9756 1439.31 360.896C1655.75 525.895 1781.32 790.388 1793.22 1062.75Z" fill="#F4F3EF"/>
<path d="M2021.45 920.106C2034.22 1212.56 1896.88 1499.6 1761.32 1514.68C1574.32 1535.46 1521.91 1307.06 1516.43 1118.81C1510.8 925.548 1662.61 427.023 1761.32 859.584C1834.26 1179.15 2009.56 647.683 2021.45 920.106Z" fill="#FFABE1"/>
<path d="M1414.45 965.957C1237.7 1306.66 492.326 1733.95 -206.725 1562C-905.776 1390.05 110.562 1299.46 110.562 902.238C110.562 505.014 334.972 183 679.534 183C827.711 183 963.808 242.499 1070.83 341.976C1292.15 483.418 1523.55 755.664 1414.45 965.957Z" fill="#9AB3F5"/>
<path d="M314.912 1051.85C-83.5583 1152.7 -665.778 1115.86 -557.543 812.411C-378.557 310.619 54.5484 -24.9437 590.276 42.643C801.064 69.2312 1002.77 234.318 1103.22 387.853C1334.23 740.956 922.912 897.955 314.912 1051.85Z" fill="#A685E2"/>
<path d="M188.734 -266.818C585.659 -192.443 1128.2 130.355 893.865 604.468C763.917 867.378 182.343 1088.97 -19.1565 998.97C-353.162 849.787 -451.518 -386.784 188.734 -266.818Z" fill="#B9FFFC"/>
<path d="M477.408 722.514C242.031 1058.67 -508.299 1270.19 -831.766 1043.7C-1155.24 817.199 -929.357 238.453 -693.979 -97.7006C-458.606 -433.849 -146.891 -622.87 176.581 -396.372C500.049 -169.878 712.782 386.365 477.408 722.514Z" fill="#0AB7E0"/>
<path d="M153.051 777.954C-146.732 1057.51 -862.611 1173.92 -1082.67 937.936C-1302.73 701.953 -1192.66 133.627 -892.872 -145.925C-593.092 -425.474 -18.4689 -495.636 201.589 -259.653C421.646 -23.6704 452.83 498.405 153.051 777.954Z" fill="#2E39A9"/>
</g>
<defs>
<clipPath id="clip0">
<rect width="1600" height="1200" fill="white"/>
</clipPath>
</defs>
</svg>
