<svg width="117" height="117" viewBox="0 0 117 117" fill="none" xmlns="http://www.w3.org/2000/svg">
<path d="M58.4927 65.8045C60.4321 65.8045 62.2921 65.0341 63.6634 63.6627C65.0348 62.2914 65.8052 60.4314 65.8052 58.492C65.8052 56.5526 65.0348 54.6927 63.6634 53.3213C62.2921 51.9499 60.4321 51.1795 58.4927 51.1795C56.5533 51.1795 54.6933 51.9499 53.322 53.3213C51.9506 54.6927 51.1802 56.5526 51.1802 58.492C51.1802 60.4314 51.9506 62.2914 53.322 63.6627C54.6933 65.0341 56.5533 65.8045 58.4927 65.8045ZM32.8989 58.492C32.8954 52.33 35.1152 46.3735 39.1506 41.7166C43.186 37.0597 48.7661 34.0151 54.8659 33.1419C60.9658 32.2687 67.176 33.6256 72.3558 36.9633C77.5356 40.3011 81.3373 45.3956 83.0627 51.3111L72.7886 61.5852C73.4577 58.4979 73.1092 55.277 71.7953 52.4043C70.4814 49.5316 68.2726 47.1616 65.4995 45.6487C62.7264 44.1359 59.538 43.5616 56.4113 44.0117C53.2846 44.4619 50.3877 45.9123 48.154 48.146C45.9203 50.3797 44.4699 53.2766 44.0197 56.4033C43.5696 59.53 44.1439 62.7184 45.6567 65.4915C47.1695 68.2646 49.5396 70.4734 52.4123 71.7873C55.285 73.1013 58.5059 73.4497 61.5932 72.7806L53.6884 80.6928C52.92 81.459 52.1973 82.2696 51.5239 83.1205C46.1626 81.6017 41.4435 78.3747 38.0833 73.9296C34.7231 69.4845 32.9054 64.0642 32.9063 58.492H32.8989ZM58.4927 25.5858C65.0727 25.5838 71.5021 27.5545 76.9508 31.2434C82.3994 34.9324 86.617 40.1701 89.0589 46.2801C92.3465 44.4221 96.1191 43.6013 99.8814 43.9255C96.4334 34.1698 89.6489 25.9462 80.7261 20.7071C71.8033 15.4681 61.3162 13.5505 51.1169 15.2932C40.9175 17.0358 31.6619 22.3264 24.9848 30.2308C18.3076 38.1352 14.6384 48.1449 14.625 58.492C14.6255 67.7244 17.5373 76.7214 22.9462 84.2034C28.3552 91.6853 35.9858 97.271 44.7525 100.166L46.4198 93.5189C46.7561 92.1734 47.1949 90.8571 47.7214 89.5848C40.3834 87.0259 34.1876 81.9531 30.2308 75.2646C26.2741 68.576 24.8116 60.7031 26.1024 53.0397C27.3932 45.3764 31.354 38.4169 37.2835 33.3936C43.213 28.3702 50.7287 25.607 58.5 25.5931L58.4927 25.5858ZM83.9841 60.7296L60.7303 83.9834L58.8583 85.8627C56.2563 88.4647 54.411 91.7255 53.5202 95.2958L51.8749 101.862L51.2972 104.144C51.1098 104.892 51.1193 105.675 51.3249 106.418C51.5304 107.161 51.9249 107.838 52.4698 108.383C53.0148 108.928 53.6917 109.322 54.4346 109.528C55.1774 109.733 55.9608 109.743 56.7084 109.555L65.5566 107.34C69.1266 106.448 72.3873 104.603 74.9897 102.001L106.346 70.6454C108.445 68.5821 109.665 65.7872 109.752 62.845C109.838 59.9028 108.784 57.041 106.81 54.858C104.835 52.6749 102.094 51.3395 99.1575 51.131C96.2215 50.9224 93.3184 51.8568 91.0553 53.7389C90.7627 53.9802 90.4776 54.2361 90.207 54.5067L83.9914 60.7223L83.9841 60.7296Z" fill="#FDB01A"/>
</svg>
