<svg width="114" height="114" viewBox="0 0 114 114" fill="none" xmlns="http://www.w3.org/2000/svg">
<path d="M100.225 59.375L106.875 66.0725L75.8575 97.375L59.375 80.75L66.025 74.0525L75.8575 83.9325L100.225 59.375ZM47.5 80.75L61.75 95H14.25V85.5C14.25 75.0025 31.255 66.5 52.25 66.5L61.2275 67.0225L47.5 80.75ZM52.25 19C57.2891 19 62.1218 21.0018 65.685 24.565C69.2482 28.1282 71.25 32.9609 71.25 38C71.25 43.0391 69.2482 47.8718 65.685 51.435C62.1218 54.9982 57.2891 57 52.25 57C47.2109 57 42.3782 54.9982 38.815 51.435C35.2518 47.8718 33.25 43.0391 33.25 38C33.25 32.9609 35.2518 28.1282 38.815 24.565C42.3782 21.0018 47.2109 19 52.25 19Z" fill="#50CD8A"/>
</svg>
