<svg width="129" height="129" viewBox="0 0 129 129" fill="none" xmlns="http://www.w3.org/2000/svg">
<path d="M83.3125 61.8123C83.3125 72.5623 69.875 80.6248 69.875 88.6873H59.125C59.125 80.6248 45.6875 72.5623 45.6875 61.8123C45.6875 51.4385 54.1263 42.9998 64.5 42.9998C74.8738 42.9998 83.3125 51.4385 83.3125 61.8123ZM69.875 94.0623H59.125V102.125H69.875V94.0623ZM118.25 64.4998C118.25 49.6648 112.23 36.2273 102.501 26.4985L96.8038 32.196C101.051 36.4347 104.419 41.4702 106.716 47.0136C109.013 52.5571 110.193 58.4994 110.188 64.4998C110.188 77.0773 105.081 88.526 96.8038 96.8035L102.501 102.501C107.5 97.5165 111.465 91.5934 114.168 85.0719C116.87 78.5504 118.258 71.5591 118.25 64.4998ZM18.8125 64.4998C18.8125 51.9223 23.9188 40.4735 32.1963 32.196L26.4988 26.4985C21.4999 31.4831 17.5352 37.4062 14.8325 43.9277C12.1298 50.4492 10.7424 57.4405 10.75 64.4998C10.75 79.3348 16.77 92.7723 26.4988 102.501L32.1963 96.8035C27.9491 92.5648 24.5806 87.5294 22.2839 81.9859C19.9872 76.4425 18.8075 70.5002 18.8125 64.4998ZM94.0625 64.4998C94.0625 72.6698 90.73 80.0335 85.4088 85.4085L91.1063 91.106C94.6057 87.6162 97.3807 83.469 99.2717 78.9029C101.163 74.3368 102.132 69.4419 102.125 64.4998C102.125 54.126 97.9325 44.7198 91.1063 37.8935L85.4088 43.591C90.73 48.966 94.0625 56.3298 94.0625 64.4998ZM37.8938 91.106L43.5913 85.4085C38.2163 80.0335 34.9375 72.6698 34.9375 64.4998C34.9375 56.3298 38.27 48.966 43.5913 43.591L37.8938 37.8935C34.3943 41.3834 31.6193 45.5306 29.7283 50.0967C27.8373 54.6628 26.8676 59.5576 26.875 64.4998C26.875 74.8735 31.0675 84.2798 37.8938 91.106Z" fill="#7579E7"/>
</svg>
