<svg width="450" height="472" viewBox="0 0 450 472" fill="none" xmlns="http://www.w3.org/2000/svg">
<g clip-path="url(#clip0)">
<path d="M313.888 57.4858L313.025 58.3914L372.182 114.712L373.044 113.806L313.888 57.4858Z" fill="#E6E6E6"/>
<path d="M373.139 107.699L371.889 107.775L372.266 113.928L366.101 113.854L366.088 115.105L373.596 115.194L373.139 107.699Z" fill="#E6E6E6"/>
<path d="M319.983 57.0923L319.969 58.343L313.805 58.2689L314.182 64.422L312.932 64.4976L312.476 57.0026L319.983 57.0923Z" fill="#E6E6E6"/>
<path d="M343.034 92.9752C346.832 92.9752 349.911 89.8965 349.911 86.0988C349.911 82.3012 346.832 79.2225 343.034 79.2225C339.237 79.2225 336.158 82.3012 336.158 86.0988C336.158 89.8965 339.237 92.9752 343.034 92.9752Z" fill="#E6E6E6"/>
<path d="M137.363 57.4858L78.2061 113.807L79.0682 114.712L138.225 58.3914L137.363 57.4858Z" fill="#E6E6E6"/>
<path d="M77.6543 115.194L85.1628 115.105L85.1486 113.854L78.9843 113.928L79.3612 107.775L78.1121 107.699L77.6543 115.194Z" fill="#E6E6E6"/>
<path d="M138.775 57.0026L138.318 64.4976L137.069 64.422L137.445 58.2689L131.281 58.343L131.268 57.0923L138.775 57.0026Z" fill="#E6E6E6"/>
<path d="M108.215 92.9752C112.013 92.9752 115.091 89.8965 115.091 86.0988C115.091 82.3012 112.013 79.2225 108.215 79.2225C104.418 79.2225 101.339 82.3012 101.339 86.0988C101.339 89.8965 104.418 92.9752 108.215 92.9752Z" fill="#E6E6E6"/>
<path d="M276.885 142.527H173.115C171.624 142.525 170.194 141.932 169.139 140.877C168.084 139.823 167.491 138.393 167.489 136.901V5.62606C167.491 4.13446 168.084 2.70444 169.139 1.64972C170.194 0.594993 171.624 0.00169863 173.115 0H276.885C278.377 0.00169863 279.807 0.594993 280.861 1.64972C281.916 2.70444 282.509 4.13446 282.511 5.62606V136.901C282.509 138.393 281.916 139.823 280.861 140.877C279.807 141.932 278.377 142.525 276.885 142.527ZM173.115 1.25024C171.955 1.25154 170.843 1.71298 170.023 2.53333C169.202 3.35367 168.741 4.46592 168.739 5.62606V136.901C168.741 138.061 169.202 139.173 170.023 139.994C170.843 140.814 171.955 141.276 173.115 141.277H276.885C278.045 141.276 279.157 140.814 279.978 139.994C280.798 139.173 281.26 138.061 281.261 136.901V5.62606C281.26 4.46592 280.798 3.35367 279.978 2.53333C279.157 1.71298 278.045 1.25154 276.885 1.25024H173.115Z" fill="#3F3D56"/>
<path d="M216.368 63.1005H193.526C192.78 63.0997 192.065 62.803 191.538 62.2757C191.01 61.7483 190.714 61.0333 190.713 60.2875V33.3326C190.714 32.5868 191.01 31.8717 191.538 31.3444C192.065 30.817 192.78 30.5204 193.526 30.5195H216.368C217.114 30.5204 217.829 30.817 218.356 31.3444C218.883 31.8717 219.18 32.5868 219.181 33.3326V60.2874C219.18 61.0333 218.883 61.7483 218.356 62.2757C217.829 62.803 217.114 63.0997 216.368 63.1005Z" fill="#7579E7"/>
<path d="M260.752 75.6029H237.91C237.164 75.6021 236.449 75.3055 235.922 74.7781C235.394 74.2507 235.098 73.5357 235.097 72.7899V45.835C235.098 45.0892 235.394 44.3742 235.922 43.8468C236.449 43.3194 237.164 43.0228 237.91 43.022H260.752C261.497 43.0228 262.212 43.3194 262.74 43.8468C263.267 44.3742 263.564 45.0892 263.565 45.835V72.7899C263.564 73.5357 263.267 74.2507 262.74 74.7781C262.212 75.3055 261.497 75.6021 260.752 75.6029Z" fill="#CCCCCC"/>
<path d="M225.12 113.735H202.278C201.532 113.734 200.817 113.438 200.29 112.91C199.762 112.383 199.466 111.668 199.465 110.922V83.9672C199.466 83.2214 199.762 82.5064 200.29 81.979C200.817 81.4516 201.532 81.155 202.278 81.1542H225.12C225.866 81.155 226.581 81.4516 227.108 81.979C227.635 82.5064 227.932 83.2214 227.933 83.9672V110.922C227.932 111.668 227.635 112.383 227.108 112.91C226.581 113.438 225.866 113.734 225.12 113.735Z" fill="#FF6584"/>
<path d="M444.374 277.51H340.605C339.113 277.508 337.683 276.915 336.628 275.86C335.574 274.806 334.98 273.376 334.979 271.884V140.609C334.98 139.117 335.574 137.687 336.628 136.633C337.683 135.578 339.113 134.985 340.605 134.983H444.374C445.866 134.985 447.296 135.578 448.351 136.633C449.405 137.687 449.999 139.117 450 140.609V271.884C449.999 273.376 449.405 274.806 448.351 275.86C447.296 276.915 445.866 277.508 444.374 277.51ZM340.605 136.233C339.444 136.234 338.332 136.696 337.512 137.516C336.691 138.337 336.23 139.449 336.229 140.609V271.884C336.23 273.044 336.691 274.156 337.512 274.977C338.332 275.797 339.444 276.258 340.605 276.26H444.374C445.534 276.258 446.647 275.797 447.467 274.977C448.287 274.156 448.749 273.044 448.75 271.884V140.609C448.749 139.449 448.287 138.337 447.467 137.516C446.647 136.696 445.534 136.234 444.374 136.233H340.605Z" fill="#3F3D56"/>
<path d="M410.305 164.051H374.673C374.01 164.051 373.374 163.788 372.905 163.319C372.436 162.85 372.173 162.214 372.173 161.551C372.173 160.887 372.436 160.251 372.905 159.782C373.374 159.313 374.01 159.05 374.673 159.05H410.305C410.968 159.05 411.604 159.313 412.073 159.782C412.542 160.251 412.806 160.887 412.806 161.551C412.806 162.214 412.542 162.85 412.073 163.319C411.604 163.788 410.968 164.051 410.305 164.051Z" fill="#7579E7"/>
<path d="M427.808 187.805H357.17C356.841 187.806 356.516 187.742 356.212 187.616C355.908 187.491 355.632 187.307 355.399 187.075C355.166 186.842 354.982 186.567 354.856 186.263C354.73 185.959 354.665 185.634 354.665 185.305C354.665 184.976 354.73 184.651 354.856 184.347C354.982 184.043 355.166 183.768 355.399 183.535C355.632 183.303 355.908 183.119 356.212 182.994C356.516 182.868 356.841 182.804 357.17 182.805H427.808C428.137 182.804 428.463 182.868 428.766 182.994C429.07 183.119 429.347 183.303 429.579 183.535C429.812 183.768 429.996 184.043 430.122 184.347C430.248 184.651 430.313 184.976 430.313 185.305C430.313 185.634 430.248 185.959 430.122 186.263C429.996 186.567 429.812 186.842 429.579 187.075C429.347 187.307 429.07 187.491 428.766 187.616C428.463 187.742 428.137 187.806 427.808 187.805Z" fill="#CCCCCC"/>
<path d="M427.808 200.933H357.17C356.841 200.934 356.516 200.869 356.212 200.744C355.908 200.618 355.632 200.434 355.399 200.202C355.166 199.97 354.982 199.694 354.856 199.39C354.73 199.087 354.665 198.761 354.665 198.432C354.665 198.104 354.73 197.778 354.856 197.475C354.982 197.171 355.166 196.895 355.399 196.663C355.632 196.431 355.908 196.246 356.212 196.121C356.516 195.996 356.841 195.931 357.17 195.932H427.808C428.137 195.931 428.463 195.996 428.766 196.121C429.07 196.246 429.347 196.431 429.579 196.663C429.812 196.895 429.996 197.171 430.122 197.475C430.248 197.778 430.313 198.104 430.313 198.432C430.313 198.761 430.248 199.087 430.122 199.39C429.996 199.694 429.812 199.97 429.579 200.202C429.347 200.434 429.07 200.618 428.766 200.744C428.463 200.869 428.137 200.934 427.808 200.933Z" fill="#CCCCCC"/>
<path d="M427.808 214.06H357.17C356.841 214.061 356.516 213.997 356.212 213.871C355.908 213.746 355.632 213.562 355.399 213.33C355.166 213.097 354.982 212.822 354.856 212.518C354.73 212.214 354.665 211.889 354.665 211.56C354.665 211.231 354.73 210.906 354.856 210.602C354.982 210.298 355.166 210.023 355.399 209.79C355.632 209.558 355.908 209.374 356.212 209.249C356.516 209.123 356.841 209.059 357.17 209.06H427.808C428.137 209.059 428.463 209.123 428.766 209.249C429.07 209.374 429.347 209.558 429.579 209.79C429.812 210.023 429.996 210.298 430.122 210.602C430.248 210.906 430.313 211.231 430.313 211.56C430.313 211.889 430.248 212.214 430.122 212.518C429.996 212.822 429.812 213.097 429.579 213.33C429.347 213.562 429.07 213.746 428.766 213.871C428.463 213.997 428.137 214.061 427.808 214.06Z" fill="#CCCCCC"/>
<path d="M427.808 227.188H357.17C356.841 227.188 356.516 227.124 356.212 226.999C355.908 226.873 355.632 226.689 355.399 226.457C355.166 226.225 354.982 225.949 354.856 225.645C354.73 225.342 354.665 225.016 354.665 224.687C354.665 224.359 354.73 224.033 354.856 223.73C354.982 223.426 355.166 223.15 355.399 222.918C355.632 222.686 355.908 222.501 356.212 222.376C356.516 222.251 356.841 222.186 357.17 222.187H427.808C428.137 222.186 428.463 222.251 428.766 222.376C429.07 222.501 429.347 222.686 429.579 222.918C429.812 223.15 429.996 223.426 430.122 223.73C430.248 224.033 430.313 224.359 430.313 224.687C430.313 225.016 430.248 225.342 430.122 225.645C429.996 225.949 429.812 226.225 429.579 226.457C429.347 226.689 429.07 226.873 428.766 226.999C428.463 227.124 428.137 227.188 427.808 227.188Z" fill="#CCCCCC"/>
<path d="M427.808 240.315H357.17C356.841 240.316 356.516 240.252 356.212 240.126C355.908 240.001 355.632 239.817 355.399 239.585C355.166 239.352 354.982 239.077 354.856 238.773C354.73 238.469 354.665 238.144 354.665 237.815C354.665 237.486 354.73 237.161 354.856 236.857C354.982 236.553 355.166 236.278 355.399 236.045C355.632 235.813 355.908 235.629 356.212 235.504C356.516 235.378 356.841 235.314 357.17 235.315H427.808C428.137 235.314 428.463 235.378 428.766 235.504C429.07 235.629 429.347 235.813 429.579 236.045C429.812 236.278 429.996 236.553 430.122 236.857C430.248 237.161 430.313 237.486 430.313 237.815C430.313 238.144 430.248 238.469 430.122 238.773C429.996 239.077 429.812 239.352 429.579 239.585C429.347 239.817 429.07 240.001 428.766 240.126C428.463 240.252 428.137 240.316 427.808 240.315Z" fill="#CCCCCC"/>
<path d="M427.808 253.443H357.17C356.841 253.443 356.516 253.379 356.212 253.254C355.908 253.128 355.632 252.944 355.399 252.712C355.166 252.48 354.982 252.204 354.856 251.9C354.73 251.597 354.665 251.271 354.665 250.942C354.665 250.614 354.73 250.288 354.856 249.985C354.982 249.681 355.166 249.405 355.399 249.173C355.632 248.941 355.908 248.757 356.212 248.631C356.516 248.506 356.841 248.441 357.17 248.442H427.808C428.137 248.441 428.463 248.506 428.766 248.631C429.07 248.757 429.347 248.941 429.579 249.173C429.812 249.405 429.996 249.681 430.122 249.985C430.248 250.288 430.313 250.614 430.313 250.942C430.313 251.271 430.248 251.597 430.122 251.9C429.996 252.204 429.812 252.48 429.579 252.712C429.347 252.944 429.07 253.128 428.766 253.254C428.463 253.379 428.137 253.443 427.808 253.443Z" fill="#CCCCCC"/>
<path d="M109.396 277.51H5.62606C4.13446 277.508 2.70443 276.915 1.64971 275.86C0.594982 274.806 0.00169665 273.376 0 271.884V140.609C0.00169665 139.117 0.594982 137.687 1.64971 136.633C2.70443 135.578 4.13446 134.985 5.62606 134.983H109.396C110.887 134.985 112.317 135.578 113.372 136.633C114.427 137.687 115.02 139.117 115.022 140.609V271.884C115.02 273.376 114.427 274.806 113.372 275.86C112.317 276.915 110.887 277.508 109.396 277.51ZM5.62606 136.233C4.46592 136.234 3.35367 136.696 2.53333 137.516C1.71298 138.337 1.25153 139.449 1.25023 140.609V271.884C1.25153 273.044 1.71298 274.156 2.53333 274.977C3.35367 275.797 4.46592 276.258 5.62606 276.26H109.396C110.556 276.258 111.668 275.797 112.489 274.977C113.309 274.156 113.77 273.044 113.772 271.884V140.609C113.77 139.449 113.309 138.337 112.489 137.516C111.668 136.696 110.556 136.234 109.396 136.233H5.62606Z" fill="#3F3D56"/>
<path d="M92.9381 165.977H61.6821C61.019 165.977 60.3829 165.714 59.914 165.245C59.4451 164.776 59.1816 164.14 59.1816 163.477C59.1816 162.813 59.4451 162.177 59.914 161.708C60.3829 161.24 61.019 160.976 61.6821 160.976H92.9381C93.6012 160.976 94.2372 161.24 94.7062 161.708C95.1751 162.177 95.4385 162.813 95.4385 163.477C95.4385 164.14 95.1751 164.776 94.7062 165.245C94.2372 165.714 93.6012 165.977 92.9381 165.977Z" fill="#3F3D56"/>
<path d="M92.9381 179.104H61.6821C61.019 179.104 60.3829 178.841 59.914 178.372C59.4451 177.903 59.1816 177.267 59.1816 176.604C59.1816 175.941 59.4451 175.305 59.914 174.836C60.3829 174.367 61.019 174.104 61.6821 174.104H92.9381C93.6012 174.104 94.2372 174.367 94.7062 174.836C95.1751 175.305 95.4385 175.941 95.4385 176.604C95.4385 177.267 95.1751 177.903 94.7062 178.372C94.2372 178.841 93.6012 179.104 92.9381 179.104Z" fill="#3F3D56"/>
<path d="M45.6451 186.579H22.8033C22.0575 186.578 21.3424 186.282 20.8151 185.754C20.2877 185.227 19.9911 184.512 19.9902 183.766V156.811C19.9911 156.066 20.2877 155.351 20.8151 154.823C21.3424 154.296 22.0575 153.999 22.8033 153.998H45.6451C46.3909 153.999 47.106 154.296 47.6333 154.823C48.1607 155.351 48.4573 156.066 48.4582 156.811V183.766C48.4573 184.512 48.1607 185.227 47.6333 185.754C47.106 186.282 46.3909 186.578 45.6451 186.579Z" fill="#7579E7"/>
<path d="M92.7214 205.985H22.0829C21.7542 205.985 21.4286 205.921 21.1247 205.795C20.8208 205.67 20.5447 205.486 20.312 205.254C20.0794 205.022 19.8948 204.746 19.7689 204.442C19.6429 204.138 19.5781 203.813 19.5781 203.484C19.5781 203.155 19.6429 202.83 19.7689 202.526C19.8948 202.223 20.0794 201.947 20.312 201.714C20.5447 201.482 20.8208 201.298 21.1247 201.173C21.4286 201.047 21.7542 200.983 22.0829 200.984H92.7214C93.0501 200.983 93.3757 201.047 93.6796 201.173C93.9834 201.298 94.2596 201.482 94.4923 201.714C94.7249 201.947 94.9095 202.223 95.0354 202.526C95.1613 202.83 95.2262 203.155 95.2262 203.484C95.2262 203.813 95.1613 204.138 95.0354 204.442C94.9095 204.746 94.7249 205.022 94.4923 205.254C94.2596 205.486 93.9834 205.67 93.6796 205.795C93.3757 205.921 93.0501 205.985 92.7214 205.985Z" fill="#CCCCCC"/>
<path d="M92.7214 219.112H22.0829C21.7542 219.113 21.4286 219.048 21.1247 218.923C20.8208 218.798 20.5447 218.613 20.312 218.381C20.0794 218.149 19.8948 217.873 19.7689 217.569C19.6429 217.266 19.5781 216.94 19.5781 216.612C19.5781 216.283 19.6429 215.957 19.7689 215.654C19.8948 215.35 20.0794 215.074 20.312 214.842C20.5447 214.61 20.8208 214.426 21.1247 214.3C21.4286 214.175 21.7542 214.111 22.0829 214.111H92.7214C93.0501 214.111 93.3757 214.175 93.6796 214.3C93.9834 214.426 94.2596 214.61 94.4923 214.842C94.7249 215.074 94.9095 215.35 95.0354 215.654C95.1613 215.957 95.2262 216.283 95.2262 216.612C95.2262 216.94 95.1613 217.266 95.0354 217.569C94.9095 217.873 94.7249 218.149 94.4923 218.381C94.2596 218.613 93.9834 218.798 93.6796 218.923C93.3757 219.048 93.0501 219.113 92.7214 219.112Z" fill="#CCCCCC"/>
<path d="M92.7214 232.24H22.0829C21.7542 232.24 21.4286 232.176 21.1247 232.05C20.8208 231.925 20.5447 231.741 20.312 231.509C20.0794 231.277 19.8948 231.001 19.7689 230.697C19.6429 230.393 19.5781 230.068 19.5781 229.739C19.5781 229.41 19.6429 229.085 19.7689 228.781C19.8948 228.478 20.0794 228.202 20.312 227.97C20.5447 227.737 20.8208 227.553 21.1247 227.428C21.4286 227.302 21.7542 227.238 22.0829 227.239H92.7214C93.0501 227.238 93.3757 227.302 93.6796 227.428C93.9834 227.553 94.2596 227.737 94.4923 227.97C94.7249 228.202 94.9095 228.478 95.0354 228.781C95.1613 229.085 95.2262 229.41 95.2262 229.739C95.2262 230.068 95.1613 230.393 95.0354 230.697C94.9095 231.001 94.7249 231.277 94.4923 231.509C94.2596 231.741 93.9834 231.925 93.6796 232.05C93.3757 232.176 93.0501 232.24 92.7214 232.24Z" fill="#CCCCCC"/>
<path d="M92.7214 245.367H22.0829C21.7542 245.368 21.4286 245.303 21.1247 245.178C20.8208 245.053 20.5447 244.868 20.312 244.636C20.0794 244.404 19.8948 244.128 19.7689 243.825C19.6429 243.521 19.5781 243.195 19.5781 242.867C19.5781 242.538 19.6429 242.212 19.7689 241.909C19.8948 241.605 20.0794 241.329 20.312 241.097C20.5447 240.865 20.8208 240.681 21.1247 240.555C21.4286 240.43 21.7542 240.366 22.0829 240.366H92.7214C93.0501 240.366 93.3757 240.43 93.6796 240.555C93.9834 240.681 94.2596 240.865 94.4923 241.097C94.7249 241.329 94.9095 241.605 95.0354 241.909C95.1613 242.212 95.2262 242.538 95.2262 242.867C95.2262 243.195 95.1613 243.521 95.0354 243.825C94.9095 244.128 94.7249 244.404 94.4923 244.636C94.2596 244.868 93.9834 245.053 93.6796 245.178C93.3757 245.303 93.0501 245.368 92.7214 245.367Z" fill="#CCCCCC"/>
<path d="M92.7214 258.495H22.0829C21.7542 258.495 21.4286 258.431 21.1247 258.305C20.8208 258.18 20.5447 257.996 20.312 257.764C20.0794 257.531 19.8948 257.256 19.7689 256.952C19.6429 256.648 19.5781 256.323 19.5781 255.994C19.5781 255.665 19.6429 255.34 19.7689 255.036C19.8948 254.733 20.0794 254.457 20.312 254.224C20.5447 253.992 20.8208 253.808 21.1247 253.683C21.4286 253.557 21.7542 253.493 22.0829 253.494H92.7214C93.0501 253.493 93.3757 253.557 93.6796 253.683C93.9834 253.808 94.2596 253.992 94.4923 254.224C94.7249 254.457 94.9095 254.733 95.0354 255.036C95.1613 255.34 95.2262 255.665 95.2262 255.994C95.2262 256.323 95.1613 256.648 95.0354 256.952C94.9095 257.256 94.7249 257.531 94.4923 257.764C94.2596 257.996 93.9834 258.18 93.6796 258.305C93.3757 258.431 93.0501 258.495 92.7214 258.495Z" fill="#CCCCCC"/>
<path d="M148.625 353.596V326.641C148.626 325.895 148.922 325.18 149.45 324.653C149.977 324.126 150.692 323.829 151.438 323.828H174.28C175.026 323.829 175.741 324.126 176.268 324.653C176.795 325.18 177.092 325.895 177.093 326.641V353.596C177.092 354.342 176.795 355.057 176.268 355.584C175.741 356.112 175.026 356.408 174.28 356.409H151.438C150.692 356.408 149.977 356.112 149.45 355.584C148.922 355.057 148.626 354.342 148.625 353.596Z" fill="#E6E6E6"/>
<path d="M156.854 344.62V317.665C156.854 316.919 157.151 316.204 157.678 315.677C158.206 315.15 158.921 314.853 159.667 314.852H182.508C183.254 314.853 183.969 315.15 184.497 315.677C185.024 316.204 185.321 316.919 185.321 317.665V344.62C185.321 345.366 185.024 346.081 184.497 346.608C183.969 347.136 183.254 347.432 182.508 347.433H159.667C158.921 347.432 158.206 347.136 157.678 346.608C157.151 346.081 156.854 345.366 156.854 344.62Z" fill="#7579E7"/>
<path d="M259.247 335.995C258.388 335.499 257.648 334.82 257.079 334.006C256.51 333.192 256.127 332.264 255.956 331.286C255.785 330.308 255.83 329.305 256.089 328.346C256.348 327.388 256.814 326.498 257.453 325.739L250.373 273.986L265.122 274.71L267.437 325.19C268.641 326.349 269.378 327.91 269.508 329.576C269.637 331.242 269.152 332.898 268.142 334.23C267.132 335.562 265.669 336.478 264.03 336.803C262.391 337.128 260.689 336.841 259.247 335.995V335.995Z" fill="#A0616A"/>
<path d="M267.146 275.4C266.844 275.756 266.457 276.03 266.02 276.196L252.766 281.255C252.1 281.509 251.362 281.498 250.704 281.225C250.046 280.951 249.518 280.436 249.229 279.785L237.488 253.399C236.36 250.951 236.168 248.176 236.948 245.596C237.525 243.755 238.587 242.104 240.024 240.816C241.46 239.528 243.217 238.652 245.11 238.279C246.566 237.979 248.069 238.001 249.516 238.341C251.249 238.728 252.859 239.54 254.2 240.705C255.54 241.871 256.569 243.352 257.193 245.015L267.632 272.609C267.807 273.075 267.855 273.58 267.77 274.07C267.684 274.561 267.469 275.02 267.146 275.4Z" fill="#CCCCCC"/>
<path d="M198.077 462.312H188.907L185.582 426.774L198.079 426.941L198.077 462.312Z" fill="#A0616A"/>
<path d="M182.356 459.692H200.042V470.827H171.221C171.221 469.365 171.509 467.917 172.068 466.566C172.628 465.215 173.448 463.987 174.482 462.953C175.516 461.919 176.744 461.099 178.095 460.539C179.446 459.98 180.894 459.692 182.356 459.692Z" fill="#2F2E41"/>
<path d="M240.714 462.312H231.543L227.181 426.94L240.715 426.941L240.714 462.312Z" fill="#A0616A"/>
<path d="M224.993 459.692H242.679V470.827H213.857C213.857 469.365 214.145 467.917 214.705 466.566C215.265 465.215 216.085 463.987 217.119 462.953C218.153 461.919 219.381 461.099 220.732 460.539C222.083 459.98 223.531 459.692 224.993 459.692Z" fill="#2F2E41"/>
<path d="M241.866 449.727L227.463 448.661C226.644 448.599 225.876 448.241 225.303 447.652C224.729 447.064 224.39 446.287 224.35 445.467L221.138 379.096C221.108 378.459 220.845 377.855 220.401 377.398C219.956 376.94 219.36 376.661 218.724 376.612C218.089 376.563 217.457 376.748 216.948 377.132C216.438 377.516 216.087 378.072 215.959 378.697L202.561 444.078C202.395 444.882 201.941 445.598 201.285 446.092C200.628 446.585 199.814 446.822 198.995 446.757L185.976 445.716C185.529 445.68 185.095 445.556 184.697 445.35C184.3 445.144 183.947 444.861 183.66 444.518C183.373 444.174 183.158 443.777 183.026 443.349C182.895 442.921 182.85 442.471 182.895 442.026L194.973 321.241C195.02 320.769 195.167 320.312 195.403 319.9C195.639 319.489 195.96 319.132 196.343 318.853C196.727 318.574 197.166 318.379 197.63 318.282C198.094 318.184 198.574 318.186 199.038 318.287L244.97 328.271C245.73 328.439 246.41 328.864 246.893 329.475C247.376 330.086 247.633 330.845 247.62 331.624L245.481 446.434C245.464 447.314 245.103 448.153 244.475 448.77C243.848 449.387 243.003 449.734 242.123 449.737C242.038 449.737 241.952 449.733 241.866 449.727Z" fill="#2F2E41"/>
<path d="M229.266 220.249C239.413 220.249 247.638 212.024 247.638 201.877C247.638 191.731 239.413 183.506 229.266 183.506C219.12 183.506 210.895 191.731 210.895 201.877C210.895 212.024 219.12 220.249 229.266 220.249Z" fill="#A0616A"/>
<path d="M200.761 330.555C198.994 328.971 197.592 327.023 196.65 324.845C195.708 322.667 195.25 320.311 195.305 317.939C195.305 291.534 218.161 232.541 218.878 230.7C218.948 230.256 219.551 230.065 222.715 227.928C225.88 225.789 230.445 225.46 236.283 226.951C236.876 227.103 237.417 227.415 237.845 227.852C238.274 228.29 238.574 228.837 238.714 229.433L239.8 231.002C239.894 231.4 240.081 231.77 240.344 232.083C240.608 232.396 240.941 232.642 241.317 232.802C246.025 234.785 260.989 243.931 255.89 278.349C251.153 310.322 249.231 329.125 248.625 335.725C248.553 336.508 248.209 337.242 247.653 337.797C247.096 338.353 246.362 338.696 245.579 338.766C243.271 338.973 239.309 339.248 234.591 339.248C223.655 339.248 208.653 337.772 200.761 330.555Z" fill="#CCCCCC"/>
<path d="M178.808 320.773C178.371 319.881 178.135 318.905 178.116 317.912C178.098 316.92 178.297 315.935 178.7 315.028C179.102 314.121 179.699 313.313 180.448 312.661C181.197 312.01 182.08 311.53 183.034 311.257L205.992 264.338L217.836 273.157L191.63 316.364C191.984 317.997 191.726 319.704 190.905 321.16C190.084 322.616 188.758 323.72 187.178 324.263C185.597 324.807 183.872 324.752 182.33 324.108C180.787 323.465 179.534 322.278 178.808 320.773L178.808 320.773Z" fill="#A0616A"/>
<path d="M219.133 274.858C218.684 274.985 218.21 274.996 217.755 274.891L203.93 271.706C203.236 271.546 202.629 271.126 202.235 270.533C201.841 269.939 201.69 269.217 201.812 268.515L206.765 240.063C207.193 237.402 208.581 234.99 210.665 233.283C212.17 232.076 213.972 231.296 215.883 231.027C217.793 230.759 219.741 231.01 221.52 231.755C222.896 232.317 224.132 233.173 225.144 234.262C226.368 235.549 227.252 237.12 227.716 238.835C228.179 240.549 228.208 242.352 227.8 244.081L221.092 272.811C220.978 273.296 220.736 273.741 220.392 274.101C220.047 274.461 219.613 274.722 219.133 274.858Z" fill="#CCCCCC"/>
<path d="M224.965 218.477C224.07 217.564 223.41 216.449 223.04 215.227C222.671 214.004 222.602 212.71 222.841 211.455C223.481 208.105 223.858 205.912 223.929 205.115C224.173 202.386 221.415 200.178 218.685 199.826C218.58 199.812 218.491 199.803 218.417 199.797C218.487 199.865 218.561 199.935 218.627 199.997C219.145 200.484 219.791 201.09 219.637 201.716C219.545 202.092 219.201 202.359 218.585 202.532C214.317 203.726 211.029 202.629 208.24 199.078C207.455 198.069 206.916 196.892 206.665 195.639C205.666 190.736 208.328 186.556 210.738 183.914C212.726 181.735 215.947 179.09 220.009 178.863C223.169 178.687 226.925 180.505 228.05 183.781C228.58 182.995 229.286 182.343 230.112 181.877C230.938 181.412 231.861 181.145 232.808 181.098C234.965 181.052 237.087 181.642 238.91 182.796C247.818 187.898 251.647 200.054 247.271 209.341C244.518 215.182 238.553 219.53 231.705 220.689C231.276 220.762 230.842 220.799 230.407 220.799C229.39 220.797 228.384 220.591 227.449 220.192C226.514 219.793 225.669 219.209 224.965 218.477Z" fill="#2F2E41"/>
<path d="M138.813 471.243H284.674C284.873 471.243 285.063 471.165 285.203 471.024C285.344 470.884 285.422 470.694 285.422 470.495C285.422 470.297 285.344 470.107 285.203 469.966C285.063 469.826 284.873 469.747 284.674 469.747H138.813C138.615 469.747 138.425 469.826 138.285 469.966C138.144 470.107 138.065 470.297 138.065 470.495C138.065 470.694 138.144 470.884 138.285 471.024C138.425 471.165 138.615 471.243 138.813 471.243Z" fill="#3F3D56"/>
</g>
<defs>
<clipPath id="clip0">
<rect width="450" height="471.243" fill="white"/>
</clipPath>
</defs>
</svg>
