<svg width="165" height="50" viewBox="0 0 165 50" fill="none" xmlns="http://www.w3.org/2000/svg">
<path d="M73.3486 32.8813H84.2349V37H68.2217V12.1172H73.3486V32.8813ZM97.582 37C97.3542 36.5557 97.189 36.0031 97.0864 35.3423C95.8901 36.6753 94.335 37.3418 92.4209 37.3418C90.6094 37.3418 89.1055 36.8177 87.9092 35.7695C86.7243 34.7214 86.1318 33.3997 86.1318 31.8047C86.1318 29.8451 86.8553 28.3411 88.3022 27.293C89.7606 26.2448 91.8626 25.715 94.6084 25.7036H96.8813V24.644C96.8813 23.7896 96.6592 23.106 96.2148 22.5933C95.7819 22.0806 95.0926 21.8242 94.147 21.8242C93.3153 21.8242 92.6602 22.0236 92.1816 22.4224C91.7145 22.8211 91.481 23.368 91.481 24.063H86.542C86.542 22.992 86.8724 22.0008 87.5332 21.0894C88.194 20.1779 89.1283 19.4658 90.3359 18.9531C91.5436 18.429 92.8994 18.167 94.4033 18.167C96.682 18.167 98.4878 18.7424 99.8208 19.8931C101.165 21.0324 101.837 22.6388 101.837 24.7124V32.7275C101.849 34.4821 102.094 35.8094 102.572 36.7095V37H97.582ZM93.4976 33.5649C94.2267 33.5649 94.8989 33.4054 95.5142 33.0864C96.1294 32.756 96.5851 32.3174 96.8813 31.7705V28.5918H95.0356C92.5633 28.5918 91.2474 29.4463 91.0879 31.1553L91.0708 31.4458C91.0708 32.061 91.2873 32.568 91.7202 32.9668C92.1532 33.3656 92.7456 33.5649 93.4976 33.5649ZM122.277 27.9253C122.277 30.7736 121.627 33.0579 120.329 34.7783C119.041 36.4873 117.298 37.3418 115.099 37.3418C113.231 37.3418 111.721 36.6924 110.57 35.3936V44.1094H105.631V18.5088H110.211L110.382 20.3203C111.579 18.8848 113.139 18.167 115.065 18.167C117.344 18.167 119.115 19.0101 120.38 20.6963C121.645 22.3825 122.277 24.7067 122.277 27.6689V27.9253ZM117.338 27.5664C117.338 25.846 117.03 24.5187 116.415 23.5845C115.811 22.6502 114.928 22.1831 113.766 22.1831C112.217 22.1831 111.151 22.7756 110.57 23.9604V31.5312C111.174 32.7503 112.251 33.3599 113.8 33.3599C116.159 33.3599 117.338 31.4287 117.338 27.5664ZM130.565 37H125.609V18.5088H130.565V37ZM125.319 13.7236C125.319 12.9831 125.564 12.3735 126.054 11.895C126.555 11.4165 127.233 11.1772 128.087 11.1772C128.931 11.1772 129.603 11.4165 130.104 11.895C130.605 12.3735 130.856 12.9831 130.856 13.7236C130.856 14.4756 130.6 15.0908 130.087 15.5693C129.586 16.0479 128.919 16.2871 128.087 16.2871C127.256 16.2871 126.583 16.0479 126.071 15.5693C125.569 15.0908 125.319 14.4756 125.319 13.7236ZM136 37V22.1318H133.249V18.5088H136V16.9365C136 14.863 136.592 13.2565 137.777 12.1172C138.974 10.9665 140.643 10.3911 142.785 10.3911C143.468 10.3911 144.306 10.505 145.297 10.7329L145.246 14.561C144.835 14.4585 144.334 14.4072 143.742 14.4072C141.885 14.4072 140.956 15.2788 140.956 17.022V18.5088H144.63V22.1318H140.956V37H136Z" fill="#5157F8"/>
<path d="M45.5818 25.106C45.5818 35.7564 36.5812 44.4908 25.3519 44.4908C14.1226 44.4908 5.12207 35.7564 5.12207 25.106C5.12207 14.4556 14.1226 5.72119 25.3519 5.72119C36.5812 5.72119 45.5818 14.4556 45.5818 25.106Z" stroke="#5157F8" stroke-width="3"/>
<rect x="19.0137" y="0.740479" width="12.6757" height="12.1828" fill="#5157F8"/>
<rect x="19.0137" y="37.2891" width="12.6757" height="12.1828" fill="#5157F8"/>
<rect x="50.7031" y="19.0146" width="12.1828" height="12.6757" transform="rotate(90 50.7031 19.0146)" fill="#5157F8"/>
<rect x="12.6758" y="19.0146" width="12.1828" height="12.6757" transform="rotate(90 12.6758 19.0146)" fill="#5157F8"/>
</svg>
