<svg width="512" height="512" viewBox="0 0 512 512" fill="none" xmlns="http://www.w3.org/2000/svg">
<g clip-path="url(#clip0)">
<path d="M256 512C397.163 512 512 397.163 512 256C512 114.837 397.163 0 256 0C114.837 0 0 114.837 0 256C0 397.163 114.837 512 256 512ZM198.251 164.416C189.91 156.075 189.91 142.592 198.251 134.251C202.411 130.091 207.872 128 213.334 128C218.795 128 224.257 130.091 228.417 134.251L335.083 240.917C343.424 249.258 343.424 262.741 335.083 271.082L228.416 377.749C220.075 386.09 206.592 386.09 198.251 377.749C189.91 369.408 189.91 355.925 198.251 347.584L289.835 256L198.251 164.416Z" fill="#DDDDDD"/>
</g>
<defs>
<clipPath id="clip0">
<rect width="512" height="512" fill="white" transform="translate(512 512) rotate(-180)"/>
</clipPath>
</defs>
</svg>
