<svg width="512" height="512" viewBox="0 0 512 512" fill="none" xmlns="http://www.w3.org/2000/svg">
<path d="M256 0C114.837 0 0 114.837 0 256C0 397.163 114.837 512 256 512C397.163 512 512 397.163 512 256C512 114.837 397.163 0 256 0ZM313.749 347.584C322.09 355.925 322.09 369.408 313.749 377.749C309.589 381.909 304.128 384 298.666 384C293.205 384 287.743 381.909 283.583 377.749L176.917 271.083C168.576 262.742 168.576 249.259 176.917 240.918L283.584 134.251C291.925 125.91 305.408 125.91 313.749 134.251C322.09 142.592 322.09 156.075 313.749 164.416L222.165 256L313.749 347.584Z" fill="#DDDDDD"/>
</svg>
