<svg width="600" height="360" viewBox="0 0 600 360" fill="none" xmlns="http://www.w3.org/2000/svg">
<g clip-path="url(#clip0)">
<path d="M232.953 322.129C229.725 323.263 226.258 323.548 222.888 322.954C219.518 322.36 216.358 320.909 213.711 318.739C206.972 313.082 204.858 303.763 203.139 295.133L198.054 269.61L208.701 276.941C216.357 282.213 224.186 287.654 229.488 295.29C234.789 302.926 237.103 313.351 232.844 321.614" fill="#E6E6E6"/>
<path d="M232.043 353.03C233.121 345.181 234.229 337.231 233.473 329.298C232.801 322.252 230.652 315.37 226.276 309.727C223.953 306.738 221.126 304.177 217.923 302.159C217.088 301.631 216.319 302.955 217.151 303.48C222.693 306.983 226.98 312.155 229.393 318.251C232.058 325.03 232.486 332.42 232.027 339.621C231.749 343.976 231.161 348.303 230.567 352.624C230.521 352.819 230.55 353.025 230.649 353.2C230.748 353.374 230.91 353.505 231.102 353.565C231.297 353.618 231.506 353.591 231.682 353.491C231.858 353.391 231.988 353.226 232.043 353.03Z" fill="#F2F2F2"/>
<path d="M221.664 339.141C220.279 341.245 218.376 342.958 216.138 344.113C213.899 345.268 211.401 345.828 208.883 345.737C202.413 345.43 197.02 340.915 192.164 336.628L177.803 323.948L187.308 323.493C194.143 323.166 201.155 322.861 207.665 324.968C214.175 327.076 220.18 332.149 221.37 338.888" fill="#E6E6E6"/>
<path d="M235.089 357.543C229.902 348.365 223.886 338.166 213.136 334.906C210.147 334.002 207.013 333.679 203.903 333.952C202.922 334.037 203.167 335.548 204.146 335.463C209.36 335.031 214.563 336.407 218.881 339.362C223.036 342.19 226.271 346.122 229.009 350.291C230.686 352.845 232.188 355.507 233.691 358.166C234.171 359.016 235.575 358.402 235.089 357.543V357.543Z" fill="#F2F2F2"/>
<path d="M374.107 173.693L261.028 267.413C259.605 268.589 257.774 269.154 255.936 268.982C254.098 268.809 252.403 267.915 251.223 266.495L203.555 208.981C202.378 207.558 201.814 205.727 201.986 203.888C202.158 202.05 203.053 200.355 204.473 199.176L317.552 105.455C318.975 104.279 320.806 103.715 322.644 103.887C324.482 104.059 326.177 104.953 327.357 106.373L375.025 163.887C376.202 165.31 376.766 167.142 376.594 168.98C376.422 170.818 375.527 172.513 374.107 173.693Z" fill="#CCCCCC"/>
<path d="M369.576 170.87L259.096 262.436C258.364 263.042 257.42 263.333 256.473 263.244C255.526 263.156 254.653 262.695 254.045 261.964L208.532 207.049C207.926 206.316 207.635 205.372 207.724 204.425C207.812 203.478 208.273 202.605 209.005 201.998L319.484 110.432C320.217 109.826 321.16 109.535 322.107 109.624C323.054 109.712 323.927 110.173 324.535 110.905L370.049 165.819C370.655 166.552 370.945 167.496 370.857 168.443C370.768 169.39 370.308 170.263 369.576 170.87Z" fill="white"/>
<path d="M374.669 190.038L351.946 187.911L368.21 175.111L376.971 185.682C377.312 186.085 377.524 186.582 377.579 187.108C377.633 187.634 377.527 188.164 377.275 188.629C377.11 188.944 376.884 189.224 376.611 189.452C376.342 189.674 376.032 189.839 375.699 189.94C375.365 190.04 375.016 190.074 374.669 190.038Z" fill="#CCCCCC"/>
<path d="M329.038 149.337L273.148 195.659C272.807 195.942 272.413 196.155 271.989 196.285C271.566 196.416 271.12 196.462 270.679 196.421C270.237 196.38 269.808 196.252 269.416 196.045C269.024 195.837 268.677 195.555 268.394 195.214C268.111 194.872 267.898 194.479 267.767 194.055C267.637 193.631 267.591 193.186 267.632 192.745C267.673 192.303 267.801 191.874 268.008 191.482C268.215 191.09 268.498 190.743 268.839 190.46L324.729 144.138C325.07 143.855 325.464 143.642 325.887 143.512C326.311 143.381 326.756 143.335 327.198 143.376C327.639 143.417 328.068 143.545 328.46 143.752C328.852 143.96 329.2 144.242 329.483 144.583C329.766 144.925 329.979 145.318 330.109 145.742C330.24 146.166 330.286 146.611 330.245 147.052C330.203 147.494 330.076 147.923 329.868 148.315C329.661 148.707 329.379 149.054 329.038 149.337Z" fill="#CCCCCC"/>
<path d="M301.684 153.371L263.991 184.611C263.301 185.182 262.413 185.456 261.522 185.373C260.63 185.289 259.808 184.855 259.237 184.166C258.665 183.476 258.391 182.588 258.475 181.697C258.558 180.805 258.992 179.983 259.682 179.412L297.375 148.172C298.064 147.6 298.952 147.326 299.844 147.41C300.735 147.493 301.557 147.927 302.129 148.617C302.7 149.306 302.974 150.194 302.891 151.086C302.807 151.977 302.373 152.799 301.684 153.371Z" fill="#CCCCCC"/>
<path d="M243.279 217.261C249.107 217.261 253.83 212.537 253.83 206.71C253.83 200.883 249.107 196.159 243.279 196.159C237.452 196.159 232.729 200.883 232.729 206.71C232.729 212.537 237.452 217.261 243.279 217.261Z" fill="#6C63FF"/>
<path d="M327.207 185.561C329.072 185.561 330.584 184.049 330.584 182.185C330.584 180.32 329.072 178.808 327.207 178.808C325.343 178.808 323.831 180.32 323.831 182.185C323.831 184.049 325.343 185.561 327.207 185.561Z" fill="#E6E6E6"/>
<path d="M336.305 178.02C338.17 178.02 339.681 176.509 339.681 174.644C339.681 172.779 338.17 171.268 336.305 171.268C334.44 171.268 332.929 172.779 332.929 174.644C332.929 176.509 334.44 178.02 336.305 178.02Z" fill="#E6E6E6"/>
<path d="M345.404 170.48C347.268 170.48 348.78 168.968 348.78 167.103C348.78 165.239 347.268 163.727 345.404 163.727C343.539 163.727 342.027 165.239 342.027 167.103C342.027 168.968 343.539 170.48 345.404 170.48Z" fill="#E6E6E6"/>
<path d="M291.59 351.663L299.341 351.663L303.029 321.765L291.589 321.766L291.59 351.663Z" fill="#FFB8B8"/>
<path d="M289.612 349.133L304.877 349.132H304.878C306.155 349.132 307.42 349.384 308.6 349.872C309.781 350.361 310.853 351.078 311.756 351.981C312.66 352.884 313.376 353.957 313.865 355.137C314.354 356.317 314.606 357.582 314.606 358.86V359.176L289.613 359.177L289.612 349.133Z" fill="#2F2E41"/>
<path d="M263.772 351.663L271.523 351.663L275.21 321.765L263.771 321.766L263.772 351.663Z" fill="#FFB8B8"/>
<path d="M261.794 349.133L277.059 349.132H277.059C278.337 349.132 279.602 349.384 280.782 349.872C281.962 350.361 283.035 351.078 283.938 351.981C284.842 352.884 285.558 353.957 286.047 355.137C286.536 356.317 286.787 357.582 286.787 358.86V359.176L261.794 359.177L261.794 349.133Z" fill="#2F2E41"/>
<path d="M271.55 342.515H271.548L264.957 342.514C264.219 342.516 263.51 342.231 262.979 341.719C262.449 341.207 262.139 340.508 262.115 339.771L261.907 334.004C260.241 287.888 258.518 240.202 269.189 218.768L269.273 218.6L304.603 217.321L311.695 282.386C311.998 285.161 311.887 287.966 311.367 290.709L301.99 340.118C301.863 340.788 301.5 341.39 300.967 341.814C300.433 342.239 299.765 342.458 299.084 342.431L291.68 342.191C291.292 342.175 290.912 342.081 290.562 341.913C290.212 341.745 289.9 341.508 289.645 341.215C289.391 340.922 289.198 340.581 289.081 340.211C288.963 339.841 288.922 339.451 288.96 339.065L294.776 293.367C294.974 291.395 294.795 289.403 294.248 287.497L287.015 262.211C286.955 262.002 286.826 261.82 286.647 261.695C286.469 261.57 286.254 261.51 286.037 261.526C285.82 261.541 285.615 261.63 285.456 261.779C285.297 261.927 285.194 262.126 285.164 262.341L274.367 340.062C274.27 340.741 273.933 341.363 273.415 341.813C272.898 342.264 272.236 342.513 271.55 342.515Z" fill="#2F2E41"/>
<path d="M275.775 152.271C284.351 152.271 291.303 145.319 291.303 136.742C291.303 128.166 284.351 121.214 275.775 121.214C267.198 121.214 260.246 128.166 260.246 136.742C260.246 145.319 267.198 152.271 275.775 152.271Z" fill="#FFB8B8"/>
<path d="M302.947 222.124H270.814C270.406 222.124 270.002 222.036 269.631 221.866C269.26 221.696 268.929 221.449 268.662 221.14C268.395 220.831 268.197 220.468 268.083 220.076C267.969 219.684 267.94 219.272 267.999 218.868L269.586 207.995L260.265 182.356C259.302 179.709 258.945 176.88 259.218 174.077C259.491 171.274 260.389 168.567 261.845 166.156C263.3 163.745 265.277 161.69 267.63 160.143C269.984 158.596 272.653 157.595 275.444 157.213C279.42 156.659 283.469 157.392 286.998 159.305C290.527 161.218 293.351 164.211 295.057 167.845L297.104 172.201L305.744 218.76C305.821 219.171 305.805 219.593 305.7 219.997C305.595 220.401 305.401 220.777 305.134 221.098C304.867 221.419 304.533 221.678 304.155 221.855C303.777 222.032 303.365 222.124 302.947 222.124H302.947Z" fill="#6C63FF"/>
<path d="M235.115 249.396C236.082 249.172 236.988 248.738 237.77 248.125C238.551 247.512 239.188 246.736 239.637 245.85C240.086 244.964 240.335 243.991 240.367 242.999C240.399 242.006 240.213 241.019 239.822 240.106L264.86 183.538L250.537 179.93L230.429 236.669C228.939 237.428 227.779 238.706 227.169 240.263C226.559 241.819 226.541 243.546 227.119 245.114C227.696 246.683 228.829 247.985 230.303 248.775C231.777 249.564 233.489 249.785 235.115 249.396H235.115Z" fill="#FFB8B8"/>
<path d="M261.471 193.655L247.54 187.134C247.144 186.948 246.792 186.68 246.509 186.346C246.226 186.012 246.018 185.621 245.9 185.2C245.781 184.779 245.755 184.337 245.823 183.905C245.891 183.472 246.051 183.06 246.292 182.695L254.758 169.909C255.72 167.888 257.443 166.33 259.551 165.577C261.659 164.825 263.979 164.938 266.004 165.893C268.028 166.848 269.592 168.566 270.351 170.671C271.111 172.777 271.005 175.097 270.057 177.125L265.68 191.77C265.554 192.189 265.34 192.576 265.051 192.905C264.762 193.234 264.406 193.497 264.007 193.676C263.607 193.855 263.174 193.945 262.737 193.942C262.299 193.938 261.867 193.84 261.471 193.655H261.471Z" fill="#6C63FF"/>
<path d="M339.562 103.83C339.865 104.775 339.956 105.776 339.83 106.761C339.704 107.746 339.363 108.691 338.832 109.53C338.301 110.369 337.593 111.082 336.757 111.617C335.921 112.153 334.977 112.498 333.993 112.63L298.228 163.105L287.794 152.65L326.231 106.322C326.119 104.654 326.624 103.003 327.648 101.682C328.673 100.361 330.146 99.4618 331.789 99.1546C333.433 98.8473 335.132 99.1535 336.564 100.015C337.997 100.877 339.064 102.234 339.562 103.83Z" fill="#FFB8B8"/>
<path d="M306.499 157.18C306.55 157.615 306.506 158.056 306.372 158.472C306.237 158.888 306.014 159.271 305.718 159.593L295.381 170.853C294.126 172.707 292.187 173.988 289.988 174.414C287.79 174.84 285.513 174.378 283.655 173.127C281.797 171.877 280.512 169.941 280.079 167.744C279.647 165.547 280.103 163.268 281.348 161.407L287.995 147.588C288.185 147.194 288.457 146.845 288.794 146.565C289.13 146.286 289.523 146.082 289.946 145.968C290.368 145.854 290.811 145.832 291.242 145.905C291.674 145.977 292.085 146.141 292.447 146.387L305.182 155.013C305.544 155.258 305.85 155.579 306.077 155.953C306.304 156.327 306.448 156.746 306.499 157.18Z" fill="#6C63FF"/>
<path d="M296.178 130.242C296.168 128.837 295.973 127.439 295.597 126.085C293.095 116.84 283.859 111.291 274.591 112.683C272.788 112.167 270.922 111.905 269.047 111.907C264.276 111.907 259.663 113.613 256.04 116.717C252.418 119.82 250.024 124.117 249.292 128.831L241.805 177.028H282.268L288.802 134.968C289.044 133.405 289.102 131.819 288.972 130.242H296.178Z" fill="#2F2E41"/>
<path d="M346.47 359.528H213.067C212.899 359.528 212.738 359.461 212.62 359.342C212.501 359.224 212.435 359.063 212.435 358.895C212.435 358.728 212.501 358.567 212.62 358.448C212.738 358.33 212.899 358.263 213.067 358.263H346.47C346.638 358.263 346.799 358.33 346.917 358.448C347.036 358.567 347.103 358.728 347.103 358.895C347.103 359.063 347.036 359.224 346.917 359.342C346.799 359.461 346.638 359.528 346.47 359.528Z" fill="#CCCCCC"/>
<path d="M480.866 49.1049C481.791 49.0159 482.725 49.1308 483.601 49.4415C484.477 49.7523 485.274 50.2513 485.936 50.9035C486.598 51.5557 487.109 52.3451 487.434 53.2162C487.758 54.0873 487.887 55.0189 487.812 55.9453L508.491 65.0465L498.627 71.4137L480.502 61.795C478.954 61.5661 477.544 60.7773 476.539 59.5781C475.533 58.3789 475.003 56.8525 475.048 55.2883C475.092 53.7241 475.71 52.2307 476.782 51.0911C477.854 49.9514 479.307 49.2447 480.866 49.1049V49.1049Z" fill="#A0616A"/>
<path d="M564.28 37.7517C572.856 37.7517 579.808 30.7994 579.808 22.2232C579.808 13.647 572.856 6.69458 564.28 6.69458C555.703 6.69458 548.751 13.647 548.751 22.2232C548.751 30.7994 555.703 37.7517 564.28 37.7517Z" fill="#A0616A"/>
<path d="M536.175 243.644L528.424 243.644L524.736 213.746L536.176 213.747L536.175 243.644Z" fill="#A0616A"/>
<path d="M538.152 251.158L513.159 251.157V250.841C513.159 249.563 513.411 248.298 513.9 247.118C514.389 245.938 515.105 244.865 516.008 243.962C516.912 243.059 517.984 242.342 519.164 241.853C520.345 241.364 521.61 241.113 522.887 241.113H522.888L538.153 241.113L538.152 251.158Z" fill="#2F2E41"/>
<path d="M568.42 243.644L560.669 243.644L556.981 213.746L568.421 213.747L568.42 243.644Z" fill="#A0616A"/>
<path d="M570.396 251.158L545.403 251.157V250.841C545.403 249.563 545.655 248.298 546.144 247.118C546.633 245.938 547.349 244.865 548.253 243.962C549.156 243.059 550.228 242.342 551.409 241.853C552.589 241.364 553.854 241.113 555.131 241.113H555.132L570.397 241.113L570.396 251.158Z" fill="#2F2E41"/>
<path d="M568.052 237.276C567.936 237.276 567.82 237.269 567.705 237.255L556.358 235.858C555.694 235.777 555.079 235.464 554.623 234.974C554.167 234.484 553.898 233.849 553.865 233.18L550.558 158.725C550.547 158.514 550.466 158.312 550.327 158.153C550.188 157.993 549.999 157.884 549.792 157.844C549.584 157.804 549.369 157.834 549.18 157.93C548.992 158.027 548.841 158.183 548.752 158.375L540.258 186.689L538.509 232.171C538.494 232.563 538.398 232.948 538.227 233.301C538.056 233.654 537.814 233.968 537.515 234.223C537.217 234.478 536.869 234.669 536.494 234.783C536.118 234.897 535.723 234.932 535.333 234.886L525.508 233.73C524.805 233.649 524.158 233.309 523.693 232.776C523.229 232.243 522.98 231.556 522.996 230.849L523.83 188.037L530.487 120.835L530.784 120.846L571.262 122.406L570.897 234.44C570.894 235.193 570.593 235.915 570.06 236.446C569.527 236.978 568.805 237.276 568.052 237.276H568.052Z" fill="#2F2E41"/>
<path d="M569.728 128.547C569.704 128.547 569.679 128.547 569.654 128.546L528.888 127.478C528.488 127.468 528.095 127.373 527.735 127.201C527.374 127.028 527.054 126.782 526.795 126.477C526.536 126.173 526.344 125.817 526.232 125.434C526.119 125.05 526.089 124.647 526.143 124.251L533.977 66.5956C534.466 62.7027 535.771 58.9566 537.806 55.602C539.841 52.2474 542.56 49.3598 545.787 47.1276C548.625 45.1736 551.849 43.8497 555.242 43.2449C558.634 42.64 562.116 42.7681 565.455 43.6206C579.684 47.2264 588.221 62.5058 584.484 77.6809L572.491 126.382C572.337 126.999 571.981 127.546 571.481 127.938C570.981 128.33 570.364 128.544 569.728 128.547Z" fill="#3F3D56"/>
<path d="M516.247 82.7635C513.56 82.7668 510.931 81.9857 508.682 80.5161L484.909 64.9187C484.561 64.6904 484.267 64.3886 484.048 64.0345C483.83 63.6803 483.691 63.2826 483.643 62.8692C483.595 62.4558 483.638 62.0369 483.769 61.642C483.901 61.2471 484.117 60.8858 484.403 60.5837L487.985 56.8026C488.375 56.3881 488.882 56.1008 489.438 55.9783C489.994 55.8557 490.574 55.9035 491.103 56.1154L517.658 66.6901L542.258 49.1224C543.408 48.301 544.717 47.7273 546.1 47.4376C547.484 47.1479 548.912 47.1486 550.295 47.4394C551.678 47.7303 552.986 48.3051 554.136 49.1275C555.285 49.9499 556.252 51.0019 556.974 52.217C557.696 53.4322 558.158 54.7839 558.33 56.1868C558.503 57.5897 558.383 59.0131 557.977 60.3671C557.571 61.721 556.889 62.976 555.973 64.0526C555.057 65.1291 553.927 66.0039 552.656 66.6215L522.253 81.3891C520.38 82.2958 518.327 82.7658 516.247 82.7635Z" fill="#3F3D56"/>
<path d="M569.66 37.0734C572.309 37.6989 575.505 38.179 577.399 36.2231C577.734 35.8539 578.034 35.4538 578.294 35.0281L580.769 31.249C582.665 28.354 584.595 25.3834 585.398 22.017C585.859 20.0827 585.931 18.0759 585.61 16.1134C585.289 14.1509 584.581 12.2717 583.528 10.585C582.475 8.89832 581.097 7.43775 579.474 6.28814C577.852 5.13852 576.017 4.32278 574.076 3.8883C570.38 3.06081 566.764 1.63702 562.985 1.89673C559.207 2.15645 554.776 2.07118 551.605 0C551.803 0.923368 552.871 5.00321 552.871 5.00321C552.871 5.00321 548.103 9.37749 547.146 10.4682C548.398 9.91332 549.76 9.65278 551.129 9.70662C552.497 9.76046 553.834 10.1272 555.039 10.7788C556.243 11.4303 557.282 12.3493 558.075 13.4651C558.869 14.5808 559.396 15.8637 559.616 17.215C559.887 18.8752 559.728 20.7164 560.714 22.079C561.652 23.375 563.335 23.8291 564.749 24.5773C566.788 25.7387 568.344 27.5903 569.138 29.7981C569.932 32.0059 569.91 34.4247 569.078 36.6183L569.66 37.0734Z" fill="#2F2E41"/>
<path d="M551.016 134.108H422.297C420.679 134.107 419.128 133.463 417.984 132.319C416.84 131.175 416.196 129.624 416.194 128.005V62.5367C416.196 60.9186 416.84 59.3673 417.984 58.2232C419.128 57.079 420.679 56.4354 422.297 56.4336H551.016C552.634 56.4354 554.185 57.079 555.329 58.2232C556.473 59.3673 557.117 60.9186 557.119 62.5367V128.005C557.117 129.624 556.473 131.175 555.329 132.319C554.185 133.463 552.634 134.107 551.016 134.108Z" fill="#CCCCCC"/>
<path d="M549.536 129.67H423.777C422.943 129.669 422.144 129.337 421.555 128.748C420.965 128.159 420.634 127.359 420.633 126.526V64.0162C420.634 63.1826 420.965 62.3835 421.555 61.7941C422.144 61.2047 422.943 60.8731 423.777 60.8722H549.536C550.37 60.8731 551.169 61.2047 551.758 61.7941C552.348 62.3835 552.679 63.1826 552.68 64.0162V126.526C552.679 127.359 552.348 128.159 551.758 128.748C551.169 129.337 550.37 129.669 549.536 129.67Z" fill="white"/>
<path d="M542.253 145.452L528.109 131.309L546.242 131.767V143.8C546.247 144.263 546.112 144.717 545.855 145.102C545.597 145.487 545.23 145.786 544.8 145.959C544.512 146.079 544.203 146.142 543.891 146.143C543.586 146.142 543.284 146.08 543.003 145.962C542.721 145.843 542.467 145.67 542.253 145.452Z" fill="#CCCCCC"/>
<path d="M534.224 92.4678H470.605C469.82 92.4678 469.067 92.156 468.512 91.6011C467.957 91.0462 467.646 90.2935 467.646 89.5087C467.646 88.7239 467.957 87.9713 468.512 87.4164C469.067 86.8614 469.82 86.5497 470.605 86.5497H534.224C535.009 86.5497 535.761 86.8614 536.316 87.4164C536.871 87.9713 537.183 88.7239 537.183 89.5087C537.183 90.2935 536.871 91.0462 536.316 91.6011C535.761 92.156 535.009 92.4678 534.224 92.4678Z" fill="#CCCCCC"/>
<path d="M513.511 79.8918H470.605C470.216 79.8924 469.831 79.8163 469.471 79.6678C469.112 79.5194 468.785 79.3015 468.51 79.0267C468.235 78.7519 468.016 78.4255 467.867 78.0662C467.718 77.7069 467.642 77.3217 467.642 76.9328C467.642 76.5438 467.718 76.1587 467.867 75.7994C468.016 75.4401 468.235 75.1137 468.51 74.8389C468.785 74.5641 469.112 74.3462 469.471 74.1978C469.831 74.0493 470.216 73.9732 470.605 73.9738H513.511C514.296 73.9738 515.048 74.2855 515.603 74.8405C516.158 75.3954 516.47 76.148 516.47 76.9328C516.47 77.7176 516.158 78.4702 515.603 79.0252C515.048 79.5801 514.296 79.8918 513.511 79.8918Z" fill="#CCCCCC"/>
<path d="M444.269 92.4678C449.376 92.4678 453.517 88.3277 453.517 83.2208C453.517 78.1138 449.376 73.9738 444.269 73.9738C439.162 73.9738 435.022 78.1138 435.022 83.2208C435.022 88.3277 439.162 92.4678 444.269 92.4678Z" fill="#6C63FF"/>
<path d="M514.618 116.568C516.252 116.568 517.577 115.243 517.577 113.609C517.577 111.975 516.252 110.65 514.618 110.65C512.984 110.65 511.659 111.975 511.659 113.609C511.659 115.243 512.984 116.568 514.618 116.568Z" fill="#E6E6E6"/>
<path d="M524.976 116.568C526.61 116.568 527.935 115.243 527.935 113.609C527.935 111.975 526.61 110.65 524.976 110.65C523.341 110.65 522.017 111.975 522.017 113.609C522.017 115.243 523.341 116.568 524.976 116.568Z" fill="#E6E6E6"/>
<path d="M535.332 116.568C536.966 116.568 538.291 115.243 538.291 113.609C538.291 111.975 536.966 110.65 535.332 110.65C533.698 110.65 532.373 111.975 532.373 113.609C532.373 115.243 533.698 116.568 535.332 116.568Z" fill="#E6E6E6"/>
<path d="M549.023 126.323C549.125 125.399 549.429 124.509 549.912 123.715C550.395 122.921 551.047 122.243 551.821 121.728C552.595 121.213 553.472 120.874 554.391 120.735C555.31 120.596 556.249 120.661 557.14 120.923L570.28 102.544L574.494 113.503L561.37 129.276C560.829 130.744 559.768 131.963 558.389 132.702C557.009 133.44 555.407 133.647 553.885 133.283C552.363 132.919 551.027 132.01 550.131 130.727C549.235 129.444 548.841 127.877 549.023 126.323H549.023Z" fill="#A0616A"/>
<path d="M564.075 125.331C563.868 125.348 563.66 125.343 563.454 125.315C563.042 125.26 562.646 125.115 562.296 124.89C561.946 124.665 561.65 124.365 561.428 124.013L558.651 119.607C558.346 119.126 558.193 118.564 558.212 117.995C558.231 117.426 558.421 116.875 558.757 116.416L575.576 93.3048L564.644 65.122C563.668 62.6423 563.705 59.8781 564.747 57.4254C565.789 54.9726 567.754 53.0276 570.217 52.0095C571.608 51.4259 573.112 51.1579 574.62 51.2248C576.127 51.2917 577.601 51.6919 578.936 52.3965C580.27 53.1012 581.432 54.0928 582.338 55.3001C583.243 56.5074 583.87 57.9004 584.172 59.3788L590.955 92.4916C591.427 94.8268 591.288 97.2442 590.551 99.5099C589.814 101.776 588.505 103.813 586.75 105.424L565.753 124.597C565.29 125.02 564.7 125.279 564.075 125.331Z" fill="#3F3D56"/>
<path d="M599.368 252.678H465.964C465.797 252.678 465.636 252.612 465.517 252.493C465.399 252.375 465.332 252.214 465.332 252.046C465.332 251.878 465.399 251.718 465.517 251.599C465.636 251.48 465.797 251.414 465.964 251.414H599.368C599.536 251.414 599.696 251.48 599.815 251.599C599.934 251.718 600 251.878 600 252.046C600 252.214 599.934 252.375 599.815 252.493C599.696 252.612 599.536 252.678 599.368 252.678Z" fill="#CCCCCC"/>
<path d="M162.245 95.3275H33.5269C31.9088 95.3257 30.3575 94.6821 29.2134 93.5379C28.0692 92.3938 27.4256 90.8425 27.4238 89.2244V23.7556C27.4256 22.1376 28.0692 20.5863 29.2134 19.4421C30.3575 18.298 31.9088 17.6544 33.5269 17.6526H162.245C163.863 17.6544 165.415 18.298 166.559 19.4421C167.703 20.5863 168.346 22.1376 168.348 23.7556V89.2244C168.346 90.8425 167.703 92.3938 166.559 93.5379C165.415 94.6821 163.863 95.3256 162.245 95.3275Z" fill="#CCCCCC"/>
<path d="M160.766 90.8889H35.0063C34.1727 90.888 33.3736 90.5564 32.7842 89.967C32.1948 89.3776 31.8632 88.5785 31.8623 87.7449V25.2352C31.8632 24.4016 32.1948 23.6025 32.7842 23.0131C33.3736 22.4237 34.1727 22.0921 35.0063 22.0912H160.766C161.599 22.0921 162.398 22.4237 162.988 23.0131C163.577 23.6025 163.909 24.4016 163.91 25.2352V87.7449C163.909 88.5785 163.577 89.3776 162.988 89.967C162.398 90.5564 161.599 90.888 160.766 90.8889Z" fill="white"/>
<path d="M153.482 106.671L139.339 92.5277L157.472 92.9861V105.019C157.477 105.482 157.341 105.936 157.084 106.321C156.827 106.706 156.459 107.005 156.029 107.178C155.741 107.298 155.432 107.361 155.12 107.362C154.815 107.361 154.513 107.299 154.232 107.181C153.951 107.062 153.696 106.889 153.482 106.671Z" fill="#CCCCCC"/>
<path d="M145.453 53.6868H81.834C81.0493 53.6868 80.2966 53.375 79.7417 52.8201C79.1868 52.2652 78.875 51.5125 78.875 50.7277C78.875 49.9429 79.1868 49.1903 79.7417 48.6354C80.2966 48.0804 81.0493 47.7687 81.834 47.7687H145.453C146.238 47.7687 146.991 48.0804 147.546 48.6354C148.101 49.1903 148.412 49.9429 148.412 50.7277C148.412 51.5125 148.101 52.2652 147.546 52.8201C146.991 53.375 146.238 53.6868 145.453 53.6868Z" fill="#CCCCCC"/>
<path d="M124.74 41.111H81.834C81.0493 41.111 80.2966 40.7992 79.7417 40.2443C79.1868 39.6893 78.875 38.9367 78.875 38.1519C78.875 37.3671 79.1868 36.6145 79.7417 36.0596C80.2966 35.5046 81.0493 35.1929 81.834 35.1929H124.74C125.525 35.1929 126.278 35.5046 126.833 36.0596C127.387 36.6145 127.699 37.3671 127.699 38.1519C127.699 38.9367 127.387 39.6893 126.833 40.2443C126.278 40.7992 125.525 41.111 124.74 41.111Z" fill="#CCCCCC"/>
<path d="M55.499 53.6869C60.6059 53.6869 64.746 49.5469 64.746 44.4399C64.746 39.3329 60.6059 35.1929 55.499 35.1929C50.392 35.1929 46.252 39.3329 46.252 44.4399C46.252 49.5469 50.392 53.6869 55.499 53.6869Z" fill="#6C63FF"/>
<path d="M125.848 77.7872C127.482 77.7872 128.807 76.4624 128.807 74.8282C128.807 73.1939 127.482 71.8691 125.848 71.8691C124.213 71.8691 122.889 73.1939 122.889 74.8282C122.889 76.4624 124.213 77.7872 125.848 77.7872Z" fill="#E6E6E6"/>
<path d="M136.204 77.7872C137.838 77.7872 139.163 76.4624 139.163 74.8282C139.163 73.1939 137.838 71.8691 136.204 71.8691C134.57 71.8691 133.245 73.1939 133.245 74.8282C133.245 76.4624 134.57 77.7872 136.204 77.7872Z" fill="#E6E6E6"/>
<path d="M146.562 77.7872C148.196 77.7872 149.521 76.4624 149.521 74.8282C149.521 73.1939 148.196 71.8691 146.562 71.8691C144.927 71.8691 143.603 73.1939 143.603 74.8282C143.603 76.4624 144.927 77.7872 146.562 77.7872Z" fill="#E6E6E6"/>
<path d="M156.907 11.3623C156.032 11.6771 155.237 12.1799 154.578 12.8351C153.919 13.4904 153.411 14.2822 153.091 15.1548C152.771 16.0274 152.646 16.9595 152.726 17.8856C152.805 18.8117 153.086 19.7092 153.55 20.5148L138.742 37.5792L150.381 39.1211L162.658 22.6801C163.96 21.8117 164.898 20.4959 165.294 18.9821C165.691 17.4684 165.518 15.8617 164.809 14.4667C164.1 13.0716 162.904 11.9851 161.448 11.4129C159.991 10.8408 158.376 10.8228 156.907 11.3623Z" fill="#FFB8B8"/>
<path d="M58.0393 18.1941C58.3552 19.0682 58.4755 20.001 58.3918 20.9267C58.3082 21.8524 58.0226 22.7485 57.5552 23.5518C57.0877 24.3552 56.4499 25.0463 55.6864 25.5765C54.923 26.1066 54.0526 26.463 53.1366 26.6204L49.4519 48.911L40.8359 40.9356L45.656 20.9907C45.4935 19.4343 45.9077 17.8724 46.8199 16.6009C47.7321 15.3295 49.079 14.4368 50.6055 14.0921C52.1319 13.7474 53.7317 13.9745 55.1018 14.7306C56.4719 15.4866 57.5171 16.7189 58.0393 18.1941V18.1941Z" fill="#FFB8B8"/>
<path d="M81.18 243.644L88.9313 243.644L92.6186 213.746L81.1787 213.747L81.18 243.644Z" fill="#FFB8B8"/>
<path d="M79.2021 241.113L94.4669 241.113H94.4676C95.7451 241.113 97.01 241.364 98.1903 241.853C99.3706 242.342 100.443 243.059 101.346 243.962C102.25 244.865 102.966 245.938 103.455 247.118C103.944 248.298 104.196 249.563 104.196 250.841V251.157L79.2026 251.158L79.2021 241.113Z" fill="#2F2E41"/>
<path d="M41.3479 243.644L49.0993 243.644L52.7865 213.746L41.3467 213.747L41.3479 243.644Z" fill="#FFB8B8"/>
<path d="M39.3711 241.113L54.6359 241.113H54.6365C55.914 241.113 57.179 241.364 58.3593 241.853C59.5395 242.342 60.6119 243.059 61.5153 243.962C62.4186 244.865 63.1352 245.938 63.6241 247.118C64.1129 248.298 64.3645 249.563 64.3645 250.841V251.157L39.3716 251.158L39.3711 241.113Z" fill="#2F2E41"/>
<path d="M79.5608 39.5204C88.137 39.5204 95.0894 32.568 95.0894 23.9918C95.0894 15.4156 88.137 8.46326 79.5608 8.46326C70.9846 8.46326 64.0322 15.4156 64.0322 23.9918C64.0322 32.568 70.9846 39.5204 79.5608 39.5204Z" fill="#FFB8B8"/>
<path d="M77.6994 233.712L76.4154 151.896C76.4122 151.664 76.3245 151.442 76.1689 151.271C76.0133 151.1 75.8005 150.992 75.5705 150.966C75.3406 150.941 75.1094 151.001 74.9204 151.134C74.7315 151.268 74.5978 151.466 74.5445 151.691L53.4964 231.718C53.3381 232.358 52.9646 232.925 52.4386 233.323C51.9125 233.721 51.2658 233.926 50.6064 233.905L39.0427 233.41C38.6496 233.393 38.2642 233.295 37.911 233.122C37.5578 232.948 37.2444 232.703 36.9905 232.403C36.7367 232.102 36.548 231.752 36.4363 231.375C36.3247 230.997 36.2925 230.601 36.3417 230.211L54.2019 127.371L54.2385 127.081L103.985 129.434L104.309 129.449L93.6418 233.883C93.5858 234.598 93.2629 235.266 92.7374 235.754C92.2118 236.242 91.5219 236.514 90.8047 236.517H80.5442C79.7975 236.514 79.0816 236.219 78.5499 235.695C78.0182 235.17 77.7129 234.459 77.6994 233.712Z" fill="#2F2E41"/>
<path d="M116.991 136.365L44.8027 130.441C44.367 130.405 43.9454 130.269 43.5706 130.044C43.1958 129.819 42.8779 129.511 42.6417 129.143C42.4054 128.775 42.2571 128.358 42.2082 127.923C42.1594 127.489 42.2114 127.049 42.3601 126.638L53.7283 95.2079L54.3824 57.9036C54.4061 56.5494 54.6985 55.2135 55.2426 53.9731C55.7867 52.7328 56.5716 51.6129 57.5519 50.6783C58.5321 49.7437 59.6882 49.013 60.953 48.5287C62.2179 48.0444 63.5663 47.816 64.92 47.8569L69.7207 43.5052H87.3094L88.841 45.5131L101.079 47.3938C103.259 47.7379 105.271 48.7739 106.817 50.3487C108.363 51.9235 109.362 53.9538 109.665 56.1396L120.043 133.15C120.097 133.552 120.065 133.96 119.948 134.349C119.831 134.737 119.633 135.096 119.367 135.401C119.1 135.706 118.771 135.951 118.402 136.119C118.033 136.287 117.633 136.374 117.227 136.375C117.149 136.375 117.07 136.372 116.991 136.365Z" fill="#2F2E41"/>
<path d="M102.926 51.0101L133.706 41.9919L147.636 23.6519C148.019 23.1468 148.561 22.7843 149.174 22.6221C149.787 22.4599 150.437 22.5072 151.02 22.7566L159.717 26.4742C160.088 26.6326 160.421 26.8681 160.694 27.165C160.967 27.4619 161.173 27.8135 161.3 28.1963C161.427 28.5791 161.47 28.9845 161.429 29.3856C161.387 29.7867 161.26 30.1742 161.057 30.5226L150.647 48.3872C148.952 51.3095 146.371 53.6173 143.279 54.977L107.076 70.9807L102.926 51.0101Z" fill="#2F2E41"/>
<path d="M43.8734 64.5002C42.034 63.175 40.5671 61.3982 39.6143 59.3411C38.6614 57.284 38.2549 55.0161 38.4337 52.7561L39.7845 34.8588C39.8402 34.1439 40.1631 33.4763 40.6888 32.9887C41.2146 32.5012 41.9047 32.2296 42.6217 32.2279H42.6469L52.8461 32.3187C53.2639 32.3225 53.6758 32.4183 54.0524 32.5992C54.4291 32.7802 54.7612 33.0418 55.0253 33.3656C55.2894 33.6894 55.479 34.0674 55.5805 34.4727C55.6821 34.878 55.6931 35.3007 55.6128 35.7108L53.7204 45.3661L67.2252 51.0724L55.853 73.1966L43.8734 64.5002Z" fill="#2F2E41"/>
<path d="M88.5953 5.37162C88.5953 5.37162 72.3561 -3.37246 63.5047 6.94742C54.6532 17.2673 66.877 33.4053 66.877 33.4053L84.294 35.602C84.294 35.602 84.9263 23.7623 89.0732 23.9921C93.2201 24.222 106.099 9.28204 88.5953 5.37162Z" fill="#2F2E41"/>
<path d="M134.036 252.046H0.632244C0.464563 252.046 0.303748 251.979 0.18518 251.861C0.0666108 251.742 0 251.581 0 251.414C0 251.246 0.0666108 251.085 0.18518 250.967C0.303748 250.848 0.464563 250.781 0.632244 250.781H134.036C134.204 250.781 134.364 250.848 134.483 250.967C134.601 251.085 134.668 251.246 134.668 251.414C134.668 251.581 134.601 251.742 134.483 251.861C134.364 251.979 134.204 252.046 134.036 252.046Z" fill="#CCCCCC"/>
</g>
<defs>
<clipPath id="clip0">
<rect width="600" height="359.528" fill="white"/>
</clipPath>
</defs>
</svg>
